<?xml version="1.0" encoding="UTF-8"?>
<svg width="64px" height="80px" viewBox="0 0 64 80" version="1.1" xmlns="http://www.w3.org/2000/svg" xmlns:xlink="http://www.w3.org/1999/xlink">
    <title>710950A9-DA07-4627-878F-CF4C44F77E87</title>
    <g id="Home" stroke="none" stroke-width="1" fill="none" fill-rule="evenodd">
        <g id="Home-Desktop" transform="translate(-769.000000, -3592.000000)" fill="#FEFEFE">
            <g id="footer-desktop" transform="translate(0.000000, 3035.000000)">
                <g id="Group-8" transform="translate(0.000000, 257.000000)">
                    <g id="Group-2" transform="translate(722.000000, 300.000000)">
                        <g id="Group-17" transform="translate(47.000000, 0.000000)">
                            <path d="M2.368,12.88 L8.384,11.15 L8.142,10.304 L3.054,11.766 L2.224,8.88 L6.724,7.586 L6.48,6.74 L1.98,8.032 L1.172,5.216 L6.2,3.772 L5.958,2.924 L-3.26849658e-13,4.636 L2.368,12.88 Z M14,10.07 C15.684,9.802 16.742,8.666 16.512,7.214 L16.508,7.19 C16.3,5.894 15.32,5.344 13.366,5.232 C11.438,5.13 10.932,4.752 10.804,3.952 L10.8,3.928 C10.68,3.166 11.284,2.448 12.386,2.274 C13.258,2.134 14.09,2.288 14.978,2.804 L15.416,1.976 C14.448,1.424 13.508,1.214 12.274,1.412 C10.664,1.668 9.648,2.834 9.86,4.166 L9.864,4.19 C10.086,5.582 11.08,6.068 13.096,6.182 C14.936,6.274 15.43,6.654 15.556,7.44 L15.56,7.464 C15.692,8.3 15.038,9.024 13.9,9.206 C12.726,9.394 11.816,9.128 10.806,8.47 L10.324,9.266 C11.484,10.012 12.658,10.284 14,10.07 L14,10.07 Z M22.03,8.9 L23.006,8.83 L22.46,1.166 L25.332,0.962 L25.268,0.07 L18.548,0.55 L18.61,1.44 L21.484,1.236 L22.03,8.9 Z M27.622,8.604 L28.748,8.588 L28.73,7.302 L27.604,7.318 L27.622,8.604 Z M32.722,8.62 L33.676,8.66 L34.044,0.03 L33.334,2.84217094e-14 L31.21,0.632 L31.41,1.426 L33.048,0.994 L32.722,8.62 Z M39.664,8.344 C38.912,8.246 38.306,7.858 37.694,7.162 L37.038,7.83 C37.676,8.518 38.422,9.07 39.53,9.214 C41.63,9.486 43.31,7.764 43.66,5.068 L43.662,5.044 C43.884,3.34 43.594,2.34 43.034,1.612 C42.558,0.994 41.882,0.574 40.91,0.448 C39.098,0.214 37.682,1.326 37.474,2.944 L37.47,2.968 C37.274,4.5 38.342,5.762 40.094,5.988 C41.188,6.13 42.034,5.71 42.676,4.952 L42.652,5.122 C42.416,6.956 41.306,8.556 39.664,8.344 L39.664,8.344 Z M40.31,5.178 C39.07,5.016 38.32,4.128 38.46,3.046 L38.462,3.022 C38.6,1.964 39.486,1.128 40.764,1.292 C42.04,1.458 42.816,2.424 42.676,3.506 L42.674,3.53 C42.548,4.504 41.612,5.346 40.31,5.178 L40.31,5.178 Z M48.56,9.788 C47.818,9.624 47.25,9.186 46.702,8.436 L45.99,9.044 C46.566,9.786 47.258,10.402 48.346,10.644 C50.418,11.102 52.244,9.536 52.83,6.88 L52.836,6.856 C53.206,5.18 53.006,4.156 52.514,3.382 C52.094,2.726 51.46,2.248 50.502,2.036 C48.718,1.64 47.21,2.624 46.86,4.216 L46.852,4.24 C46.518,5.748 47.474,7.1 49.198,7.48 C50.274,7.718 51.154,7.374 51.862,6.678 L51.824,6.846 C51.424,8.652 50.176,10.146 48.56,9.788 L48.56,9.788 Z M49.484,6.692 C48.264,6.422 47.594,5.47 47.83,4.406 L47.836,4.382 C48.066,3.34 49.024,2.586 50.282,2.864 C51.538,3.142 52.226,4.172 51.99,5.238 L51.986,5.262 C51.774,6.22 50.764,6.976 49.484,6.692 L49.484,6.692 Z M56.698,12.952 C58.198,13.492 59.75,12.932 60.268,11.49 L60.278,11.466 C60.808,9.99 59.796,8.86 58.432,8.238 L61.98,6.336 L62.22,5.668 L57.066,3.814 L56.774,4.632 L60.716,6.05 L57.134,8.006 L57.124,8.612 L57.644,8.8 C58.97,9.276 59.704,10.166 59.344,11.17 L59.334,11.192 C58.994,12.138 57.986,12.48 57.006,12.128 C56.014,11.77 55.422,11.062 55.086,10.082 L54.204,10.43 C54.556,11.518 55.348,12.466 56.698,12.952 L56.698,12.952 Z" id="Fill-7"></path>
                            <path d="M31.1092,21.8918 C15.7032,21.8918 3.1692,34.4258 3.1692,49.8338 C3.1692,65.2398 15.7032,77.7738 31.1092,77.7738 C46.5152,77.7738 59.0512,65.2398 59.0512,49.8338 C59.0512,34.4258 46.5152,21.8918 31.1092,21.8918 M31.1092,78.8718 C15.0972,78.8718 2.0712,65.8458 2.0712,49.8338 C2.0712,33.8198 15.0972,20.7938 31.1092,20.7938 C47.1212,20.7938 60.1492,33.8198 60.1492,49.8338 C60.1492,65.8458 47.1212,78.8718 31.1092,78.8718" id="Fill-9"></path>
                            <path d="M30.3836,38.2804 C30.3836,34.4164 26.3796,34.0644 24.7276,34.0644 C20.1976,34.0644 16.6136,36.7004 16.6136,40.3524 C16.6136,45.5164 23.8156,47.6604 23.8156,53.6664 C23.8156,56.6164 22.0936,58.3384 19.7396,58.3384 C17.4916,58.3384 16.3676,56.7224 16.3676,54.9664 C16.3676,52.5424 18.5816,51.6644 20.4776,51.6644 C20.3716,49.8364 18.6156,49.3464 17.3856,49.3464 C14.9276,49.3464 12.2236,51.3124 12.2236,55.1064 C12.2236,59.3924 15.6656,61.1484 19.6696,61.1484 C24.7636,61.1484 29.5396,58.2684 29.5396,52.3664 C29.5396,44.7784 21.6376,44.0764 21.6376,38.9124 C21.6376,36.8044 22.9376,35.7164 24.8676,35.7164 C26.7996,35.7164 27.4676,36.8404 27.4676,38.0704 C27.4676,39.2284 26.8356,40.5284 25.8876,41.0904 C26.3436,41.6184 26.8716,41.8284 27.5036,41.8284 C29.2596,41.8284 30.3836,40.3184 30.3836,38.2804 L30.3836,38.2804 Z M46.5476,39.3344 C46.6156,38.9124 46.6516,38.4564 46.6516,37.8944 C46.6516,35.6104 44.6476,34.1004 42.5056,34.1004 C40.1876,34.1004 37.1656,35.0484 36.1116,40.0724 L31.8616,60.1304 C28.5256,61.1484 25.8196,62.1664 25.8196,65.3984 C25.8196,67.6824 27.8216,69.1924 29.9656,69.1924 C32.2836,69.1924 35.1996,68.2444 36.2536,63.2204 L40.2936,44.2524 L42.8916,44.2524 L43.1376,42.8464 L40.5736,42.8464 L41.1716,40.0724 C41.6636,37.7184 42.8576,37.1924 43.6296,37.1924 C44.3316,37.1924 44.9656,37.5784 44.9656,38.3864 C44.9656,38.7024 44.9296,38.9824 44.8936,39.3344 L46.5476,39.3344 Z M27.7516,64.9064 C27.7516,63.0104 29.4036,62.0264 31.6156,61.2884 L31.1596,63.3264 C30.7036,65.3984 29.8956,66.0664 29.1576,66.0664 C28.3836,66.0664 27.7516,65.3984 27.7516,64.9064 L27.7516,64.9064 Z" id="Fill-10"></path>
                            <path d="M40.9178,58.214 C40.9178,59.76 42.1478,60.99 43.6938,60.99 C45.2378,60.99 46.5038,59.76 46.5038,58.214 C46.5038,56.668 45.2378,55.404 43.6938,55.404 C42.1478,55.404 40.9178,56.668 40.9178,58.214" id="Fill-11"></path>
                        </g>
                    </g>
                </g>
            </g>
        </g>
    </g>
</svg>