<?xml version="1.0" encoding="UTF-8"?>
<svg width="175px" height="40px" viewBox="0 0 175 40" version="1.1" xmlns="http://www.w3.org/2000/svg" xmlns:xlink="http://www.w3.org/1999/xlink">
    <title>A24A79AB-0EB9-4D2E-BD76-49D5EE4C3A37</title>
    <g id="Home" stroke="none" stroke-width="1" fill="none" fill-rule="evenodd">
        <g id="Home-Desktop" transform="translate(-48.000000, -20.000000)" fill="#637C80">
            <g id="Group-15" transform="translate(48.000000, 20.000000)">
                <g id="Group-13" transform="translate(0.000000, 0.000000)">
                    <path d="M57.5768162,39.8039791 L58.9207528,39.8039791 L58.9207528,34.6156955 L65.3669393,34.6156955 L65.3669393,33.3913004 L58.9207528,33.3913004 L58.9207528,29.1394255 L66.1321862,29.1394255 L66.1321862,27.8978237 L57.5768162,27.8978237 L57.5768162,39.8039791 Z M73.4006736,40.007743 C77.0231442,40.007743 79.4900467,37.1333126 79.4900467,33.8504486 L79.4900467,33.8169407 C79.4900467,30.5340767 77.0575577,27.6931541 73.4341814,27.6931541 C69.8117108,27.6931541 67.3448083,30.5675845 67.3448083,33.8504486 L67.3448083,33.884862 C67.3448083,37.1677261 69.7772973,40.007743 73.4006736,40.007743 L73.4006736,40.007743 Z M73.4341814,38.7661412 C70.7128003,38.7661412 68.7403651,36.5555285 68.7403651,33.8504486 L68.7403651,33.8169407 C68.7403651,31.1118608 70.6792925,28.9347559 73.4006736,28.9347559 C76.1220546,28.9347559 78.0953955,31.1462742 78.0953955,33.8504486 L78.0953955,33.884862 C78.0953955,36.5890364 76.1564681,38.7661412 73.4341814,38.7661412 L73.4341814,38.7661412 Z M87.281981,40.007743 C90.9044517,40.007743 93.3713542,37.1333126 93.3713542,33.8504486 L93.3713542,33.8169407 C93.3713542,30.5340767 90.9388651,27.6931541 87.3154889,27.6931541 C83.6930183,27.6931541 81.2261157,30.5675845 81.2261157,33.8504486 L81.2261157,33.884862 C81.2261157,37.1677261 83.6586048,40.007743 87.281981,40.007743 L87.281981,40.007743 Z M87.3154889,38.7661412 C84.5941078,38.7661412 82.6207669,36.5555285 82.6207669,33.8504486 L82.6207669,33.8169407 C82.6207669,31.1118608 84.5606,28.9347559 87.281981,28.9347559 C90.0042677,28.9347559 91.976703,31.1462742 91.976703,33.8504486 L91.976703,33.884862 C91.976703,36.5890364 90.03687,38.7661412 87.3154889,38.7661412 L87.3154889,38.7661412 Z M95.7486005,39.8039791 L99.8818395,39.8039791 C103.623852,39.8039791 106.20939,37.2012339 106.20939,33.8504486 L106.20939,33.8169407 C106.20939,30.4661554 103.623852,27.8978237 99.8818395,27.8978237 L95.7486005,27.8978237 L95.7486005,39.8039791 Z M99.8818395,29.1394255 C102.893018,29.1394255 104.814739,31.2141956 104.814739,33.8504486 L104.814739,33.884862 C104.814739,36.521115 102.893018,38.5623772 99.8818395,38.5623772 L97.0925371,38.5623772 L97.0925371,29.1394255 L99.8818395,29.1394255 Z M112.351289,39.9742352 C114.715857,39.9742352 116.417512,38.6475053 116.417512,36.6062431 L116.417512,36.5718296 C116.417512,34.7524438 115.192212,33.7825272 112.538752,33.2047432 C109.919706,32.6432602 109.306603,32.013856 109.306603,30.8908901 L109.306603,30.8573822 C109.306603,29.7851309 110.293726,28.9347559 111.841426,28.9347559 C113.065821,28.9347559 114.171581,29.3259827 115.27734,30.2279779 L116.059793,29.1901401 C114.851699,28.2202236 113.610098,27.7275676 111.87584,27.7275676 C109.613607,27.7275676 107.964477,29.105012 107.964477,30.9760181 L107.964477,31.0104316 C107.964477,32.9665657 109.22238,33.8504486 111.960062,34.446345 C114.461378,34.9734145 115.057275,35.6028187 115.057275,36.7085779 L115.057275,36.7420858 C115.057275,37.9157662 114.00223,38.7661412 112.402909,38.7661412 C110.752874,38.7661412 109.561987,38.2046583 108.320385,37.082598 L107.487217,38.0688156 C108.915376,39.3448309 110.463982,39.9742352 112.351289,39.9742352 L112.351289,39.9742352 Z" id="Fill-2"></path>
                    <polygon id="Fill-4" points="0.388509976 33.3901231 49.7799915 33.3901231 49.7799915 32.5261639 0.388509976 32.5261639"></polygon>
                    <polygon id="Fill-6" points="123.584208 33.3901231 172.97569 33.3901231 172.97569 32.5261639 123.584208 32.5261639"></polygon>
                    <path d="M14.4007698,19.1220263 C18.0150899,19.1220263 20.6151182,17.0943484 20.6151182,13.9735899 L20.6151182,13.9219697 C20.6151182,11.1399123 18.7423008,9.65832178 14.686945,8.77443894 C10.6832093,7.9159134 9.74680062,6.95414745 9.74680062,5.23800198 L9.74680062,5.18638177 C9.74680062,3.54811943 11.254654,2.24765247 13.621033,2.24765247 C15.4929447,2.24765247 17.1828272,2.84626574 18.8727098,4.2237102 L20.0690307,2.63797368 C18.2224763,1.15638319 16.3252073,0.402003679 13.6726532,0.402003679 C10.215005,0.402003679 7.69285977,2.50847036 7.69285977,5.36841092 L7.69285977,5.42003113 C7.69285977,8.41038064 9.61639168,9.76246781 13.8030621,10.6717079 C17.6247686,11.4777077 18.5349144,12.4403792 18.5349144,14.1302618 L18.5349144,14.181882 C18.5349144,15.9759106 16.922915,17.2763775 14.4786529,17.2763775 C11.9565077,17.2763775 10.1371218,16.417852 8.23894722,14.7017065 L6.96474317,16.2095599 C9.14909297,18.1602604 11.5145663,19.1220263 14.4007698,19.1220263 L14.4007698,19.1220263 Z M23.7603283,18.8621141 L25.8142691,18.8621141 L25.8142691,12.4403792 L30.2345889,12.4403792 C34.1088213,12.4403792 37.3844404,10.4117957 37.3844404,6.48594312 L37.3844404,6.43432291 C37.3844404,2.84626574 34.680266,0.661915947 30.5723843,0.661915947 L23.7603283,0.661915947 L23.7603283,18.8621141 Z M25.8142691,10.5684675 L25.8142691,2.56009056 L30.4166181,2.56009056 C33.3544418,2.56009056 35.3042366,3.91217773 35.3042366,6.51220603 L35.3042366,6.56382623 C35.3042366,8.95646809 33.3290845,10.5684675 30.3124721,10.5684675 L25.8142691,10.5684675 Z M40.348527,18.8621141 L42.4024678,18.8621141 L42.4024678,11.7901457 L47.6025244,11.7901457 L52.8804641,18.8621141 L55.4026093,18.8621141 L49.8122315,11.4260874 C52.6721721,10.9062629 54.7523758,9.13849724 54.7523758,6.12188482 L54.7523758,6.07026461 C54.7523758,4.64029433 54.2325513,3.36609028 53.3486685,2.48220744 C52.2048734,1.33841234 50.4108448,0.661915947 48.1748748,0.661915947 L40.348527,0.661915947 L40.348527,18.8621141 Z M42.4024678,9.94359134 L42.4024678,2.56009056 L48.0182029,2.56009056 C50.9569322,2.56009056 52.6721721,3.91217773 52.6721721,6.14814773 L52.6721721,6.19976794 C52.6721721,8.53988397 50.7223772,9.94359134 47.9928456,9.94359134 L42.4024678,9.94359134 Z M58.6546823,18.8621141 L60.7086232,18.8621141 L60.7086232,0.661915947 L58.6546823,0.661915947 L58.6546823,18.8621141 Z M64.4787095,18.8621141 L66.4801245,18.8621141 L66.4801245,3.93844064 L78.2323249,18.8621141 L79.8705872,18.8621141 L79.8705872,0.661915947 L77.8682666,0.661915947 L77.8682666,15.247794 L66.4022414,0.661915947 L64.4787095,0.661915947 L64.4787095,18.8621141 Z M92.687794,19.1736465 C95.7560266,19.1736465 98.3044347,17.9003481 99.9943172,16.3915891 L99.9943172,9.13849724 L92.4804075,9.13849724 L92.4804075,10.984146 L98.0182595,10.984146 L98.0182595,15.5077062 C96.7703184,16.521998 94.8458809,17.3279977 92.7665827,17.3279977 C88.3462629,17.3279977 85.5642055,14.1039989 85.5642055,9.76246781 L85.5642055,9.70994198 C85.5642055,5.65368049 88.4504089,2.24765247 92.4804075,2.24765247 C95.0541729,2.24765247 96.6145521,3.10617801 98.0182595,4.32785623 L99.3440838,2.76838262 C97.5237923,1.23426631 95.6265233,0.350383472 92.5582906,0.350383472 C87.0983218,0.350383472 83.4323815,4.76979765 83.4323815,9.76246781 L83.4323815,9.81408801 C83.4323815,15.0141446 86.9679128,19.1736465 92.687794,19.1736465 L92.687794,19.1736465 Z M109.669031,18.9916174 L111.488417,18.9916174 L119.314764,0.661915947 L117.105057,0.661915947 L110.604534,16.3399689 L104.130273,0.661915947 L101.842683,0.661915947 L109.669031,18.9916174 Z M116.923028,18.8621141 L119.028589,18.8621141 L121.186676,14.0523787 L131.092322,14.0523787 L133.224146,18.8621141 L135.434759,18.8621141 L127.140207,0.532412622 L125.216675,0.532412622 L116.923028,18.8621141 Z M121.992676,12.180467 L126.152178,2.92414886 L130.286322,12.180467 L121.992676,12.180467 Z M137.722349,18.8621141 L150.020637,18.8621141 L150.020637,16.9639394 L139.77629,16.9639394 L139.77629,0.661915947 L137.722349,0.661915947 L137.722349,18.8621141 Z M152.932198,18.8621141 L166.217609,18.8621141 L166.217609,16.9902023 L154.986138,16.9902023 L154.986138,10.6200877 L164.918047,10.6200877 L164.918047,8.74817603 L154.986138,8.74817603 L154.986138,2.53382765 L166.088105,2.53382765 L166.088105,0.661915947 L152.932198,0.661915947 L152.932198,18.8621141 Z" id="Fill-8"></path>
                </g>
            </g>
        </g>
    </g>
</svg>